<?xml version="1.0" encoding="UTF-8"?>
<svg width="296px" height="295px" viewBox="0 0 296 295" version="1.1" xmlns="http://www.w3.org/2000/svg" xmlns:xlink="http://www.w3.org/1999/xlink">
    <title>形状</title>
    <g id="页面-1" stroke="none" stroke-width="1" fill="none" fill-rule="evenodd">
        <path d="M20.1076158,190.220218 L23.536118,194.407185 L21.8218669,188.963589 C21.393074,186.45123 18.3933647,189.382466 20.1076158,190.220218 M23.9649108,187.707859 C25.250369,189.801342 26.5367475,191.894825 26.5367475,193.988308 C26.5367475,196.919544 29.1085842,198.175274 31.250708,199.012128 C28.2500784,195.662915 26.5358273,186.45123 23.9649108,187.707859 M188.547738,10.1833696 C195.833535,10.1833696 202.69146,9.3456168 210.40697,11.0202235 C229.265572,15.6260661 245.123545,24.8368523 255.838765,37.8166272 L285.84138,84.710109 C287.126838,96.4332548 289.698675,109.41303 289.269882,123.648535 C292.270511,123.648535 291.841718,119.461569 295.270221,118.623816 C291.841718,126.997748 290.126547,137.465164 289.269882,149.607186 C287.126838,142.90786 289.269882,132.859321 289.698675,127.416625 C286.698045,132.022467 284.983794,128.672355 284.983794,126.578872 C285.412587,123.229658 283.698336,123.647636 282.411957,122.391906 C277.697077,118.20494 274.697367,113.599097 271.268865,106.481794 C273.411909,101.039097 273.840702,93.0840414 266.982777,88.8970752 C264.839733,87.6413449 262.267897,85.5478618 260.982438,82.1977495 C259.268187,77.591907 256.267558,72.1492105 257.124223,65.0319073 C257.553016,62.9384243 250.695091,69.6377499 246.837796,66.706514 C230.122238,55.4022447 213.40668,42.4224698 193.262619,31.536178 C182.547399,31.536178 174.832809,27.7680882 170.975514,23.1622456 C167.547012,18.9752794 170.117929,13.532583 175.261602,13.1137066 C178.262232,13.1137066 181.690734,12.2759538 184.262571,13.9514594 C184.691363,12.2768527 186.405615,10.1833696 188.547738,10.1833696 M146.116573,0.552808059 L146.974159,0.971684451 C151.260247,1.80943724 153.40329,7.6710101 158.117251,5.57752702 C158.117251,8.50876289 158.546044,11.4390999 157.688458,13.532583 C156.403,16.8817964 152.544785,16.8817964 149.545075,16.8817964 C120.828839,15.2071897 104.113281,26.9303354 86.5410567,36.9788744 C81.8261761,39.9101103 76.6834228,42.0035934 72.8252076,45.7716832 C54.3953981,62.5195479 34.2513375,78.0107834 29.5364569,108.994153 L25.6791619,143.326737 C25.250369,147.094826 20.9642812,150.862916 21.8218669,155.468759 L24.8215762,175.984713 C21.8209467,173.053477 20.1066956,176.822466 20.9642812,178.497073 C21.393074,179.752803 23.1073251,183.939769 25.6791619,180.171679 C29.107664,186.452129 32.5370864,198.594151 37.2510469,204.036847 C51.8235614,220.784712 70.6821637,235.857071 86.1122639,250.930329 C89.9695589,250.092576 92.9701884,250.092576 93.8268539,247.580217 C95.1123122,250.092576 92.5413956,252.604936 90.3983517,253.023812 C97.2562762,257.210778 104.970866,260.978868 115.257293,261.815722 C128.544349,262.653475 140.97382,264.746958 152.545705,267.678194 C158.546044,266.003587 164.546383,265.165834 170.975514,264.746958 C173.118558,264.746958 174.404017,261.397744 176.975853,260.559992 L177.404646,256.373025 C179.976483,260.141115 179.54769,255.117295 177.833439,252.604936 C180.834068,255.117295 181.690734,257.210778 182.976192,258.885385 C182.976192,257.629655 186.404694,253.023812 186.405615,258.466509 L187.26228,253.023812 C188.547738,252.186059 188.976531,257.629655 190.26291,253.860666 C191.548368,250.092576 194.120205,253.022913 196.692041,251.767183 C195.834456,253.44179 196.263248,256.791902 199.262958,254.698419 L202.69238,251.767183 C204.835424,256.791902 208.263926,254.698419 209.978177,253.860666 C228.83678,242.13752 247.695382,228.320891 265.696399,214.504263 L265.267606,219.946959 L267.41065,213.247633 C269.553694,215.341117 271.267945,213.66651 272.12553,212.41078 C274.697367,208.223813 278.125869,204.036847 283.698336,200.268757 C276.840411,218.272352 268.697028,232.507858 258.410602,244.231003 L254.124514,249.255722 C254.124514,252.186958 253.266928,255.955048 249.838426,256.373025 C248.124175,256.791902 244.694752,255.535273 242.123836,258.047632 C240.838378,259.722239 245.124465,263.072351 241.695043,260.559992 C238.694414,258.466509 235.694704,260.559992 232.265282,261.397744 C229.693445,262.235497 233.979533,264.746958 234.837119,266.421565 C235.694704,268.096171 236.55137,269.770778 236.123497,271.86516 L231.408616,266.840441 C225.83707,269.771677 222.407648,275.214373 217.692767,279.401339 C215.549723,281.075946 216.407309,284.007182 216.407309,286.518643 C213.40668,286.518643 209.978177,285.68089 208.263926,287.356395 C206.978468,289.031002 207.406341,291.543362 207.406341,294.055721 C203.120253,293.636845 202.69146,287.356395 198.835085,288.612126 C194.97779,289.449878 190.691702,289.867856 187.26228,291.962238 C189.834117,296.986957 182.976192,294.055721 183.833778,294.892575 C177.404646,291.124485 171.8331,288.193249 164.975175,290.705609 C150.402661,286.099766 132.401644,288.193249 119.114588,289.868755 C119.114588,287.775272 119.543381,285.681789 118.685795,285.262912 C117.82821,287.356395 115.257293,286.518643 115.686086,286.518643 C107.542703,281.075946 99.3993201,277.725834 90.8271445,273.12089 C83.1125545,273.958643 75.8258372,270.189654 73.6827933,268.096171 C67.6824544,262.653475 60.8245298,265.583812 55.2529837,264.328081 C43.2523059,261.396846 38.9662181,249.254823 37.6798397,240.88179 C36.822254,236.694824 33.3937519,235.020217 32.1082936,235.438195 C26.5367475,217.853476 17.9645719,201.943364 11.1066473,185.614376 C9.39239623,181.42741 9.82118905,177.240443 9.82118905,172.634601 C11.964233,173.472354 14.1072769,173.053477 13.678484,170.12314 C11.5354401,156.306511 6.39268686,145.839096 0.82022061,135.790557 C3.82085014,121.555052 4.2487228,104.807187 11.1066473,92.2462886 C17.1069862,80.9420192 28.2509986,75.0795475 35.9655886,65.4498849 C38.5374253,62.1006715 38.5374253,57.4948289 41.109262,54.5644919 C49.6814376,46.1905596 58.2536133,37.3977508 67.6824544,29.8615713 C71.9685422,26.5123579 77.1112955,29.8615713 83.5404272,28.605841 C85.6834711,21.0696614 94.2556467,14.3703358 102.39903,16.4638188 C105.827532,17.3015716 112.685456,8.50876289 114.8285,7.6710101 C118.257002,6.4152798 116.542751,11.0202235 116.542751,13.9514594 C124.686134,7.6710101 135.830146,4.32179671 146.116573,0.552808059" id="形状" fill="#273ED4" fill-rule="nonzero"></path>
    </g>
</svg>